# File created by Blade
# Date/Time:  Mon Sep 22 16:09:39 2014
# Frame Rate: 120.000 fps
#------------------------------------------------------
:FULLY-SPECIFIED
:DEGREES
2861
root 2.341225 36.977701 3.534289 4.645586 -4.406762 1.776428
RightUpLeg 4.968971 -4.167842 -2.344068
RightLeg -4.885218 -0.000000 0.000000
RightFoot -14.403594 -15.972032 16.381127
RightToeBase 13.971435 -0.000000 -0.000000
LeftUpLeg 3.609574 2.070517 1.752176
LeftLeg -2.965156 -0.000000 0.000000
LeftFoot -10.679677 13.556303 -18.103476
LeftToeBase 9.377491 -0.000000 -0.000000
Spine -6.305165 -15.680400 0.150541
RightShoulder -16.690499 -25.430399 0.526805
RightArm 4.847292 45.679066 92.105839
RightForeArm 92.309314 -0.000000 91.677922
RightHand 21.791267 0.000000 -32.965908
RightHandThumb1 -24.326973 -0.000000 -32.862282
LeftShoulder -32.661582 41.368111 -7.517091
LeftArm 34.931749 6.171288 -78.232446
LeftForeArm 18.801883 0.000000 19.475357
LeftHand -12.150026 -0.000000 -11.480355
LeftHandThumb1 -26.253704 0.000000 33.147579
Head 15.605596 3.994882 10.496534
2862
root 2.339448 36.974328 3.531701 4.756562 -4.822350 1.703271
RightUpLeg 4.827507 -4.092723 -2.310579
RightLeg -4.945722 -0.000000 0.000000
RightFoot -14.259952 -15.669313 16.303074
RightToeBase 13.995448 -0.000000 -0.000000
LeftUpLeg 3.594193 2.294411 1.791531
LeftLeg -3.027095 -0.000000 0.000000
LeftFoot -10.783515 13.686167 -18.170329
LeftToeBase 9.373793 -0.000000 -0.000000
Spine -6.492020 -15.598708 0.292597
RightShoulder -16.568191 -25.353012 0.583936
RightArm 4.984359 45.449826 92.149098
RightForeArm 92.266336 -0.000000 91.514652
RightHand 22.036690 -0.000000 -33.599963
RightHandThumb1 -24.326973 -0.000000 -32.862282
LeftShoulder -32.635970 41.332851 -7.512555
LeftArm 34.928927 6.170964 -78.134210
LeftForeArm 19.430780 -0.000000 19.079715
LeftHand -12.181985 -0.000000 -12.016684
LeftHandThumb1 -26.253704 0.000000 33.147579
Head 15.883394 4.251293 10.472393
2863
root 2.338288 36.969302 3.536059 4.817685 -5.229148 1.638533
RightUpLeg 4.763944 -3.995850 -2.287482
RightLeg -5.040859 -0.000000 0.000000
RightFoot -14.124376 -15.422300 16.190565
RightToeBase 14.129638 -0.000000 -0.000000
LeftUpLeg 3.688598 2.479566 1.818992
LeftLeg -3.191207 -0.000000 0.000000
LeftFoot -10.854304 13.876520 -18.222421
LeftToeBase 9.399397 -0.000000 -0.000000
Spine -6.624377 -15.486089 0.405079
RightShoulder -16.437499 -25.258271 0.614018
RightArm 5.036500 45.258128 92.152479
RightForeArm 92.328365 -0.000000 91.321302
RightHand 21.777433 -0.000000 -33.098746
RightHandThumb1 -24.326973 -0.000000 -32.862282
LeftShoulder -32.635107 41.323861 -7.496498
LeftArm 35.034254 6.140671 -78.100179
LeftForeArm 19.964506 -0.000000 18.562251
LeftHand -12.109567 0.000000 -12.403208
LeftHandThumb1 -26.253704 0.000000 33.147579
Head 16.142267 4.443315 10.466227
2864
root 2.337397 36.966408 3.534774 4.941886 -5.624157 1.578310
RightUpLeg 4.628201 -3.856163 -2.258509
RightLeg -5.132526 -0.000000 0.000000
RightFoot -13.996155 -15.207716 16.172200
RightToeBase 14.124261 -0.000000 -0.000000
LeftUpLeg 3.651230 2.804105 1.841064
LeftLeg -3.236881 -0.000000 0.000000
LeftFoot -10.918532 13.930285 -18.240358
LeftToeBase 9.415241 -0.000000 -0.000000
Spine -6.830158 -15.360048 0.523669
RightShoulder -16.343661 -25.170459 0.643186
RightArm 5.152457 45.034579 92.160831
RightForeArm 92.857907 -0.000000 90.991903
RightHand 21.336510 -0.000000 -31.002604
RightHandThumb1 -24.326973 -0.000000 -32.862282
LeftShoulder -32.611703 41.309165 -7.456868
LeftArm 35.068627 6.080925 -78.089631
LeftForeArm 20.378742 -0.000000 18.178158
LeftHand -12.214379 0.000000 -12.477506
LeftHandThumb1 -26.253704 0.000000 33.147579
Head 16.395195 4.623776 10.482070
2865
root 2.337402 36.962392 3.538215 4.999588 -5.988494 1.529265
RightUpLeg 4.576945 -3.781373 -2.250284
RightLeg -5.235703 -0.000000 0.000000
RightFoot -13.852183 -14.950086 16.104730
RightToeBase 14.110158 -0.000000 -0.000000
LeftUpLeg 3.702601 3.063448 1.857806
LeftLeg -3.325889 -0.000000 0.000000
LeftFoot -10.975648 14.010376 -18.250241
LeftToeBase 9.466382 -0.000000 -0.000000
Spine -6.949040 -15.227267 0.608047
RightShoulder -16.243217 -25.032044 0.672138
RightArm 5.159582 44.856803 92.090901
RightForeArm 93.154146 -0.000000 90.810297
RightHand 20.820187 -0.000000 -30.343871
RightHandThumb1 -24.326973 -0.000000 -32.862282
LeftShoulder -32.560223 41.310293 -7.404225
LeftArm 35.099719 5.972237 -78.111863
LeftForeArm 20.681796 -0.000000 17.888749
LeftHand -12.257096 -0.000000 -12.699394
LeftHandThumb1 -26.253704 0.000000 33.147579
Head 16.601071 4.791944 10.495485
2866
root 2.341306 36.959575 3.540204 5.086018 -6.339891 1.489862
RightUpLeg 4.482626 -3.659051 -2.251449
RightLeg -5.315449 -0.000000 0.000000
RightFoot -13.741058 -14.755093 16.093749
RightToeBase 14.161967 -0.000000 -0.000000
LeftUpLeg 3.776186 3.124764 1.848610
LeftLeg -3.527344 -0.000000 0.000000
LeftFoot -11.019377 14.292475 -18.340400
LeftToeBase 9.442629 -0.000000 -0.000000
Spine -7.105310 -15.107357 0.711969
RightShoulder -16.129671 -24.983389 0.697016
RightArm 5.251592 44.707108 92.074025
RightForeArm 93.296319 0.000000 90.664418
RightHand 20.726474 -0.000000 -30.113755
RightHandThumb1 -24.326973 -0.000000 -32.862282
LeftShoulder -32.521615 41.315169 -7.372296
LeftArm 35.120397 5.864047 -78.143975
LeftForeArm 20.771600 -0.000000 17.607240
LeftHand -12.391005 -0.000000 -12.368266
LeftHandThumb1 -26.253704 0.000000 33.147579
Head 16.800984 4.951169 10.473980
2867
root 2.343210 36.956896 3.544397 5.156522 -6.687177 1.443162
RightUpLeg 4.395396 -3.558285 -2.242701
RightLeg -5.364823 -0.000000 0.000000
RightFoot -13.645207 -14.538518 16.061274
RightToeBase 14.189489 -0.000000 -0.000000
LeftUpLeg 3.821674 3.347766 1.859451
LeftLeg -3.630021 -0.000000 0.000000
LeftFoot -11.056084 14.380421 -18.390744
LeftToeBase 9.445856 -0.000000 -0.000000
Spine -7.239946 -14.974991 0.813981
RightShoulder -16.021238 -24.937817 0.724836
RightArm 5.367944 44.575013 92.058543
RightForeArm 92.979386 -0.000000 90.595630
RightHand 21.170189 -0.000000 -31.360018
RightHandThumb1 -24.326973 -0.000000 -32.862282
LeftShoulder -32.518206 41.344541 -7.378357
LeftArm 35.145336 5.732965 -78.166036
LeftForeArm 20.777532 -0.000000 17.449831
LeftHand -12.483892 0.000000 -12.373784
LeftHandThumb1 -26.253704 0.000000 33.147579
Head 16.963335 5.118780 10.453489
2868
root 2.347443 36.954432 3.548791 5.220033 -7.022577 1.411578
RightUpLeg 4.309978 -3.457931 -2.253650
RightLeg -5.403231 -0.000000 0.000000
RightFoot -13.566177 -14.331466 16.030813
RightToeBase 14.286103 -0.000000 -0.000000
LeftUpLeg 3.862059 3.637606 1.852730
LeftLeg -3.720726 -0.000000 0.000000
LeftFoot -11.074764 14.412935 -18.392928
LeftToeBase 9.459620 -0.000000 -0.000000
Spine -7.359421 -14.839510 0.900025
RightShoulder -15.918423 -24.887706 0.732805
RightArm 5.414106 44.444666 92.027063
RightForeArm 93.170190 0.000000 90.544821
RightHand 20.441517 -0.000000 -31.010361
RightHandThumb1 -24.326973 -0.000000 -32.862282
LeftShoulder -32.493571 41.342677 -7.367321
LeftArm 35.126240 5.587061 -78.200740
LeftForeArm 20.622061 -0.000000 17.340421
LeftHand -12.664249 0.000000 -11.833589
LeftHandThumb1 -26.253704 0.000000 33.147579
Head 17.094640 5.276940 10.426416
2869
root 2.350278 36.952702 3.552023 5.272550 -7.309532 1.375640
RightUpLeg 4.244856 -3.303064 -2.250095
RightLeg -5.445471 -0.000000 0.000000
RightFoot -13.490586 -14.209397 16.015450
RightToeBase 14.270093 -0.000000 -0.000000
LeftUpLeg 3.894520 3.865751 1.852369
LeftLeg -3.788087 -0.000000 0.000000
LeftFoot -11.120464 14.477015 -18.423738
LeftToeBase 9.507625 -0.000000 -0.000000
Spine -7.456801 -14.729991 0.989833
RightShoulder -15.831176 -24.832357 0.728810
RightArm 5.477197 44.339718 92.021464
RightForeArm 93.124376 -0.000000 90.544005
RightHand 20.595707 0.000000 -31.681252
RightHandThumb1 -24.326973 -0.000000 -32.862282
LeftShoulder -32.471751 41.360341 -7.357420
LeftArm 35.162950 5.413353 -78.259665
LeftForeArm 20.439223 -0.000000 17.214986
LeftHand -12.689279 -0.000000 -11.366884
LeftHandThumb1 -26.253704 0.000000 33.147579
Head 17.201056 5.438092 10.396285
2870
root 2.354213 36.951513 3.555520 5.324013 -7.570662 1.348738
RightUpLeg 4.170798 -3.180473 -2.252446
RightLeg -5.464895 -0.000000 0.000000
RightFoot -13.447826 -14.089763 16.016496
RightToeBase 14.299292 -0.000000 -0.000000
LeftUpLeg 3.918180 4.067477 1.846642
LeftLeg -3.847582 -0.000000 0.000000
LeftFoot -11.137955 14.525568 -18.433586
LeftToeBase 9.462615 -0.000000 -0.000000
Spine -7.550644 -14.631467 1.072396
RightShoulder -15.776954 -24.768746 0.729040
RightArm 5.488965 44.209200 91.961887
RightForeArm 92.514140 -0.000000 90.583790
RightHand 21.614726 -0.000000 -34.002894
RightHandThumb1 -24.326973 -0.000000 -32.862282
LeftShoulder -32.470479 41.372367 -7.354240
LeftArm 35.175789 5.228583 -78.324362
LeftForeArm 20.134621 -0.000000 17.183246
LeftHand -12.679689 -0.000000 -11.249245
LeftHandThumb1 -26.253704 0.000000 33.147579
Head 17.274844 5.595112 10.359383
2871
root 2.356859 36.950750 3.558010 5.360996 -7.815038 1.320457
RightUpLeg 4.111650 -3.025959 -2.249694
RightLeg -5.481623 -0.000000 0.000000
RightFoot -13.389606 -14.037485 15.952651
RightToeBase 14.298281 -0.000000 -0.000000
LeftUpLeg 3.899043 4.412556 1.845467
LeftLeg -3.799370 -0.000000 0.000000
LeftFoot -11.148920 14.460145 -18.337319
LeftToeBase 9.412470 -0.000000 -0.000000
Spine -7.618117 -14.550669 1.148721
RightShoulder -15.724764 -24.701634 0.724127
RightArm 5.542849 44.128618 91.981654
RightForeArm 92.279024 0.000000 90.677705
RightHand 21.891912 -0.000000 -35.092338
RightHandThumb1 -24.326973 -0.000000 -32.862282
LeftShoulder -32.480673 41.389288 -7.363276
LeftArm 35.197437 5.046222 -78.376856
LeftForeArm 19.708384 0.000000 17.189644
LeftHand -12.654872 -0.000000 -10.628831
LeftHandThumb1 -26.253704 0.000000 33.147579
Head 17.326392 5.762424 10.313671
2872
root 2.361096 36.950533 3.561149 5.405070 -8.009646 1.305211
RightUpLeg 4.048717 -2.870783 -2.257651
RightLeg -5.492983 -0.000000 0.000000
RightFoot -13.362659 -14.002642 15.971207
RightToeBase 14.338955 -0.000000 -0.000000
LeftUpLeg 3.889220 4.607059 1.831007
LeftLeg -3.800623 -0.000000 0.000000
LeftFoot -11.180912 14.464807 -18.370229
LeftToeBase 9.439439 -0.000000 -0.000000
Spine -7.693307 -14.500434 1.216606
RightShoulder -15.687929 -24.610567 0.707744
RightArm 5.534859 44.058664 91.943416
RightForeArm 92.066835 -0.000000 90.763099
RightHand 22.208683 0.000000 -35.889209
RightHandThumb1 -24.326973 -0.000000 -32.862282
LeftShoulder -32.476296 41.387226 -7.334916
LeftArm 35.192270 4.885358 -78.443554
LeftForeArm 19.282532 -0.000000 17.239428
LeftHand -12.802119 -0.000000 -10.226174
LeftHandThumb1 -26.253704 0.000000 33.147579
Head 17.341213 5.913090 10.278089
2873
root 2.367787 36.950595 3.565995 5.428515 -8.170849 1.315097
RightUpLeg 4.009423 -2.714741 -2.294188
RightLeg -5.499360 -0.000000 0.000000
RightFoot -13.348689 -14.003637 15.961837
RightToeBase 14.360534 -0.000000 -0.000000
LeftUpLeg 3.906444 4.697220 1.790189
LeftLeg -3.830030 -0.000000 0.000000
LeftFoot -11.195480 14.540838 -18.384339
LeftToeBase 9.455921 -0.000000 -0.000000
Spine -7.739608 -14.486094 1.264260
RightShoulder -15.660850 -24.572811 0.666886
RightArm 5.660139 44.003221 92.016846
RightForeArm 92.858753 -0.000000 90.514461
RightHand 20.543904 -0.000000 -31.330605
RightHandThumb1 -24.326973 -0.000000 -32.862282
LeftShoulder -32.529153 41.391954 -7.363753
LeftArm 35.236701 4.712817 -78.490197
LeftForeArm 18.784347 -0.000000 17.295952
LeftHand -12.793775 -0.000000 -9.876475
LeftHandThumb1 -26.253704 0.000000 33.147579
Head 17.316838 6.077768 10.216659
